<svg id="Layer_1" data-name="Layer 1" xmlns="http://www.w3.org/2000/svg" viewBox="0 0 1000 1000"><defs><style>.cls-1{fill:#f6a035;}.cls-2{fill:#fff;}</style></defs><path class="cls-1" d="M373,484.14l-10.89-37.56h.07V434.84H250.74v11.74l-10.88,37.56a14.28,14.28,0,0,0,7.88,17v64h23.41V518.49h21.94v46.67h72.06v-64a14.29,14.29,0,0,0,7.89-17m-30,3.57a10.77,10.77,0,1,1-21.54,0c0-.27,0-.52,0-.77H343c0,.25,0,.5,0,.77m-6.32-39.95,5.25,34H321.75l-2.62-34Zm-82,50.72A10.77,10.77,0,0,1,244,487.71c0-.27,0-.52,0-.77h21.48c0,.25,0,.5,0,.77a10.78,10.78,0,0,1-10.78,10.77m25.86,0a10.77,10.77,0,0,1-10.77-10.77c0-.27,0-.52,0-.77h21.48c0,.25,0,.5,0,.77a10.77,10.77,0,0,1-10.77,10.77m10.34-16.68H270.69l5.24-34h17.62Zm4.74,5.91c0-.27,0-.52,0-.77h21.47c0,.25,0,.5,0,.77a10.78,10.78,0,0,1-21.55,0m57.15,66.15H306.44V518.49h46.38Zm5.34-55.38a10.78,10.78,0,0,1-10.78-10.77c0-.27,0-.52,0-.77H368.9c0,.25,0,.5,0,.77a10.77,10.77,0,0,1-10.77,10.77"/><polygon class="cls-2" points="432.72 476.39 432.72 491.94 459.32 491.94 459.32 507.39 432.72 507.39 432.72 538.34 417.23 538.34 417.23 460.95 463.72 460.95 463.72 476.39 432.72 476.39"/><path class="cls-2" d="M467.4,509.54a30.62,30.62,0,1,1,30.66,30.61,30.63,30.63,0,0,1-30.66-30.61m46.49,0a15.88,15.88,0,1,0-15.83,15.88,15.86,15.86,0,0,0,15.83-15.88"/><path class="cls-2" d="M590.09,507.2v31H575.36v-31c0-10.05-3.73-13.54-11.1-13.54s-11.57,4.93-11.57,13.54v31H538v-57.4h13.77l.58,5.69a22.32,22.32,0,0,1,16.88-7.12c11,0,20.9,5.41,20.9,27.79"/><path class="cls-2" d="M659.69,459.32v78.92h-13.4l-.62-6.27c-4.4,5.32-10.71,8.23-18.32,8.23-17.69,0-27.93-15.55-27.93-30.56,0-16.84,11.87-30.66,28.08-30.66,7.17,0,13.39,2.63,17.84,7.75V459.32ZM645.34,509.5c0-9.81-7.37-15.79-15.45-15.79a15.75,15.75,0,0,0-15.74,15.73c0,8,6.13,16,15.74,16,8.75,0,15.45-6.6,15.45-16"/><path class="cls-2" d="M729.67,480.84v57.4H715.89l-.62-6.31c-4.4,5.31-10.72,8.22-18.32,8.22-17.7,0-27.93-15.54-27.93-30.56,0-16.84,11.86-30.66,28.07-30.66,7.37,0,13.73,2.77,18.18,8.13l.62-6.22Zm-14.73,28.6c0-9.8-7.37-15.78-15.45-15.78a15.75,15.75,0,0,0-15.74,15.74c0,8,6.12,16,15.74,16,8.75,0,15.45-6.6,15.45-16"/><path class="cls-1" d="M740.91,530.83a9.9,9.9,0,1,1,9.9,9.85,10,10,0,0,1-9.9-9.85"/></svg>