<svg width="70" height="18" viewBox="0 0 70 18" fill="none" xmlns="http://www.w3.org/2000/svg">
<g clip-path="url(#clip0_9562_5951)">
<path d="M18.2269 6.64971L16.7859 1.67163H16.7951V0.115479H2.05309V1.67163L0.613784 6.64971C0.352092 7.55648 0.796322 8.51763 1.65625 8.90317V17.3861H4.75294V11.2029H7.65525V17.3888H17.1882V8.90586C18.0476 8.52032 18.4929 7.55917 18.2317 6.6524M14.2632 7.12571C14.2632 7.91402 13.6257 8.55317 12.8385 8.55317C12.0518 8.55317 11.4137 7.91402 11.4137 7.12571V7.02394H14.2579V7.12571M13.4216 1.83048L14.1162 6.33686H11.4466L11.1003 1.83048H13.4216ZM2.57432 8.55317C1.79086 8.54671 1.15978 7.90809 1.1614 7.12302V7.02125H4.00286V7.12302C4.00232 7.91186 3.36371 8.55048 2.57648 8.55048M5.99786 8.55048C5.21063 8.55048 4.57309 7.91132 4.57309 7.12302V7.02125H7.41455V7.12302C7.41455 7.91132 6.77702 8.55048 5.98978 8.55048M7.35748 6.33956H4.69209L5.38509 1.83317H7.71609L7.35748 6.33956ZM7.98478 7.12302V7.02125H10.8252V7.12302C10.8009 7.91186 10.1435 8.53163 9.35625 8.50794C8.60294 8.48479 7.99717 7.87794 7.97455 7.12302M15.5346 15.8908H9.4214V11.2029H15.5572L15.5346 15.8908ZM16.241 8.55048C15.4538 8.55048 14.8157 7.91186 14.8152 7.12302V7.02125H17.6846V7.12302C17.6846 7.91132 17.0466 8.55048 16.2599 8.55048" fill="#F5962F"/>
<path d="M26.1295 5.62297V7.68366H29.6483V9.73143H26.1295V13.834H24.0801V3.57627H30.2304V5.62297H26.1295ZM30.7172 10.0168C30.7166 7.7752 32.5296 5.95735 34.7664 5.95681C37.0037 5.95627 38.8178 7.7725 38.8188 10.0141C38.8194 12.2541 37.0085 14.0709 34.7734 14.0736C32.535 14.0763 30.7193 12.26 30.7172 10.0179V10.0168ZM36.8675 10.0168C36.8675 8.85427 35.9268 7.91197 34.7664 7.91197C33.6065 7.91197 32.6658 8.85427 32.6658 10.0168C32.6658 11.1788 33.6065 12.1217 34.7664 12.1217H34.7734C35.9316 12.1195 36.8685 11.1772 36.8675 10.0168ZM46.948 9.70666V13.8151H44.9993V9.70666C44.9993 8.37451 44.5055 7.91197 43.5309 7.91197C42.5558 7.91197 42.0001 8.56512 42.0001 9.70666V13.8151H40.0568V6.2072H41.8784L41.9554 6.96158C42.5305 6.34127 43.3435 5.99774 44.1884 6.01766C45.6433 6.01766 46.9534 6.73489 46.9534 9.70127M56.1552 3.36035V13.8205H54.3825L54.3002 12.9897C53.7181 13.6945 52.8835 14.0806 51.8771 14.0806C49.5364 14.0806 48.1822 12.0194 48.1822 10.0297C48.1822 7.79781 49.7523 5.96597 51.8965 5.96597C52.8452 5.96597 53.668 6.31489 54.2565 6.99335V3.36035H56.1552ZM54.2565 10.0114C54.2565 8.71104 53.2819 7.91843 52.2131 7.91843C51.064 7.91897 50.1325 8.85212 50.1308 10.0034C50.1308 11.0636 50.9418 12.1244 52.2131 12.1244C53.3702 12.1244 54.2565 11.2494 54.2565 10.0034M65.4129 6.21258V13.8205H63.5897L63.5079 12.9843C62.9258 13.688 62.0895 14.0736 61.0842 14.0736C58.743 14.0736 57.3893 12.014 57.3893 10.0233C57.3893 7.79135 58.9584 5.95951 61.1031 5.95951C62.0777 5.95951 62.9193 6.32674 63.5079 7.03697L63.5897 6.21258H65.4129ZM63.4642 10.0034C63.4642 8.70458 62.4891 7.91197 61.4202 7.91197C60.2706 7.91251 59.3385 8.8462 59.338 9.99797C59.338 11.0582 60.1479 12.119 61.4202 12.119C62.5779 12.119 63.4642 11.244 63.4642 9.99797" fill="#595959"/>
<path d="M66.8965 12.8382C66.8933 12.1135 67.4764 11.5233 68.1996 11.5195C68.9233 11.5158 69.5123 12.1005 69.5161 12.8253C69.5199 13.5501 68.9362 14.1402 68.213 14.144H68.2066C67.4888 14.137 66.9073 13.5576 66.8965 12.8382Z" fill="white"/>
</g>
<defs>
<clipPath id="clip0_9562_5951">
<rect width="70" height="17.7692" fill="white" transform="translate(0 0.115479)"/>
</clipPath>
</defs>
</svg>
