<svg version="1.2" xmlns="http://www.w3.org/2000/svg" viewBox="0 0 550 170" width="550" height="170">
	<title>Artboard 3 copy 3-svg</title>
	<style>
		.s0 { fill: #f6a035 } 
	</style>
	<path id="Layer" fill-rule="evenodd" class="s0" d="m149 68.2c0.5 1.6 0.7 3.3 0.6 5c-0.2 1.7-0.6 3.4-1.3 4.9c-0.7 1.6-1.7 3-3 4.2c-1.2 1.2-2.6 2.2-4.1 2.9v64h-72.1v-46.7h-21.9v46.6h-23.5v-64c-1.5-0.7-2.9-1.6-4.2-2.8c-1.2-1.2-2.2-2.6-2.9-4.2c-0.7-1.5-1.1-3.2-1.3-4.9c-0.1-1.7 0.1-3.4 0.6-5.1l10.8-37.5v-11.8h111.5v11.8h-0.1l10.9 37.5m-30 3.6q0-0.4 0-0.7h-21.5q0 0.3 0 0.7c0 2.9 1.1 5.6 3.2 7.6c2 2.1 4.7 3.2 7.6 3.2c2.8 0 5.6-1.1 7.6-3.2c2-2 3.1-4.7 3.1-7.6zm-23.8-39.9l2.6 34h20.2l-5.3-34zm-64.4 50.7c1.4 0 2.8-0.3 4.1-0.8c1.3-0.6 2.5-1.4 3.5-2.4c1-1 1.8-2.2 2.3-3.5c0.6-1.3 0.9-2.7 0.9-4.1q0-0.4 0-0.8h-21.5q0 0.4 0 0.8c0 1.4 0.3 2.8 0.8 4.1c0.5 1.3 1.3 2.5 2.3 3.5c1 1 2.2 1.8 3.5 2.4c1.3 0.5 2.7 0.8 4.1 0.8zm25.8 0q0 0 0 0q0 0 0 0zm-0.1 0c1.4 0 2.8-0.3 4.1-0.8c1.3-0.6 2.5-1.4 3.5-2.4c1-1 1.8-2.1 2.4-3.4c0.5-1.4 0.8-2.8 0.8-4.2q0-0.4 0-0.7h-21.5q0 0.3 0 0.7c0 1.4 0.3 2.8 0.8 4.2c0.6 1.3 1.4 2.4 2.4 3.4c1 1 2.1 1.8 3.4 2.4c1.3 0.5 2.7 0.8 4.1 0.8zm13.1-50.7h-17.7l-5.2 34h20.1zm2 39.9c0.1 2.8 1.3 5.5 3.3 7.4c2 2 4.7 3.1 7.5 3.1c2.8 0 5.5-1.1 7.5-3.1c2-1.9 3.2-4.6 3.2-7.4q0-0.4 0-0.7h-21.4q0 0.3 0 0.7zm57.3 30.8h-46.4v35.4h46.2zm5.3-20c1.5 0 2.9-0.3 4.2-0.8c1.3-0.6 2.5-1.4 3.5-2.4c1-1 1.7-2.2 2.3-3.5c0.5-1.3 0.8-2.7 0.8-4.1q0-0.4 0-0.8h-21.7q0 0.4 0 0.8c0 1.4 0.3 2.8 0.8 4.1c0.6 1.3 1.4 2.5 2.4 3.5c1 1 2.2 1.8 3.5 2.4c1.3 0.5 2.7 0.8 4.1 0.8z"/>
	<path id="Layer" class="s0" d="m208.7 60.4v15.5h26.6v15.5h-26.6v30.9h-15.5v-77.4h46.5v15.5h-31z"/>
	<path id="Layer" fill-rule="evenodd" class="s0" d="m243.4 93.5c0-12.3 7.4-23.5 18.9-28.3c11.4-4.7 24.6-2.1 33.4 6.7c8.7 8.7 11.3 21.9 6.6 33.3c-4.7 11.5-15.9 18.9-28.2 19c-4.1 0-8-0.8-11.8-2.4c-3.7-1.5-7.1-3.8-9.9-6.6c-2.9-2.8-5.1-6.2-6.7-9.9c-1.5-3.8-2.3-7.7-2.3-11.8zm46.5 0c0-6.4-3.9-12.2-9.8-14.6c-6-2.5-12.8-1.1-17.3 3.4c-4.6 4.6-5.9 11.4-3.4 17.4c2.4 5.9 8.2 9.7 14.7 9.7c2 0 4.1-0.4 6-1.2c1.9-0.8 3.7-2 5.2-3.4c1.4-1.5 2.6-3.3 3.4-5.2c0.8-1.9 1.2-4 1.2-6.1z"/>
	<path id="Layer" class="s0" d="m366.1 91.2v31h-14.7v-31c0-10-3.8-13.5-11.1-13.5c-7.4 0-11.6 4.9-11.6 13.5v31h-14.7v-57.4h13.8l0.5 5.7q1.7-1.7 3.6-3.1q1.9-1.4 4.1-2.3q2.2-0.9 4.5-1.3q2.4-0.5 4.7-0.4c11 0 20.9 5.4 20.9 27.8"/>
	<path id="Layer" fill-rule="evenodd" class="s0" d="m435.7 43.3v78.9h-13.4l-0.6-6.2c-4.4 5.3-10.7 8.2-18.3 8.2c-17.7 0-28-15.5-28-30.6c0-16.8 11.9-30.6 28.1-30.6c7.2 0 13.4 2.6 17.8 7.7v-27.4zm-14.3 50.1q0 0.1 0 0.1q0 0 0 0zm-15.5-15.7c-2 0-4.1 0.4-6 1.2c-1.9 0.8-3.6 1.9-5.1 3.4c-1.4 1.4-2.6 3.2-3.4 5.1c-0.8 1.9-1.2 3.9-1.2 6c0 8 6.1 16 15.7 16c8.8 0 15.5-6.6 15.5-16c0-9.8-7.4-15.7-15.5-15.7z"/>
	<path id="Layer" fill-rule="evenodd" class="s0" d="m505.7 64.8v57.4h-13.8l-0.6-6.3c-4.4 5.3-10.8 8.3-18.4 8.3c-17.7 0-27.9-15.6-27.9-30.6c0-16.8 11.9-30.7 28.1-30.7c7.4 0 13.7 2.8 18.2 8.2l0.6-6.3zm-14.7 28.6q0 0 0 0q0 0 0 0zm-15.5-15.7c-2.1 0-4.1 0.4-6 1.2c-1.9 0.8-3.7 2-5.1 3.4c-1.5 1.5-2.6 3.2-3.4 5.1c-0.8 1.9-1.2 4-1.2 6c0 8 6.1 16 15.7 16c8.8 0 15.5-6.6 15.5-15.9c-0.1-9.8-7.4-15.8-15.5-15.8z"/>
	<path id="Layer" class="s0" d="m516.9 114.8c0-4 2.4-7.6 6.1-9.2c3.7-1.5 8-0.7 10.8 2.2c2.8 2.8 3.7 7.1 2.2 10.8c-1.6 3.7-5.2 6.1-9.2 6.1c-1.3 0-2.6-0.3-3.8-0.8c-1.1-0.5-2.2-1.2-3.1-2.1c-1-0.9-1.7-2-2.2-3.2c-0.5-1.2-0.8-2.5-0.8-3.8z"/>
</svg>