<svg width="35" height="35" viewBox="0 0 35 35" fill="none" xmlns="http://www.w3.org/2000/svg">
<path d="M18.524 18.524H15.6821V9.99823H18.524V18.524ZM18.524 24.2078H15.6821V21.3659H18.524V24.2078ZM17.103 2.89343C15.237 2.89343 13.3892 3.26097 11.6652 3.97507C9.94126 4.68917 8.37481 5.73584 7.05533 7.05533C4.39051 9.72014 2.89343 13.3344 2.89343 17.103C2.89343 20.8716 4.39051 24.4859 7.05533 27.1507C8.37481 28.4702 9.94126 29.5169 11.6652 30.231C13.3892 30.9451 15.237 31.3126 17.103 31.3126C20.8716 31.3126 24.4859 29.8155 27.1507 27.1507C29.8155 24.4859 31.3126 20.8716 31.3126 17.103C31.3126 15.237 30.9451 13.3892 30.231 11.6652C29.5169 9.94126 28.4702 8.37481 27.1507 7.05533C25.8312 5.73584 24.2648 4.68917 22.5408 3.97507C20.8168 3.26097 18.9691 2.89343 17.103 2.89343V2.89343Z" fill="#EF665B"/>
</svg>
